<svg width="20" height="20" viewBox="0 0 20 20" fill="none" xmlns="http://www.w3.org/2000/svg">
  <path fill-rule="evenodd" clip-rule="evenodd"
    d="M10 16.6667C9.53976 16.6667 9.16666 16.2936 9.16666 15.8333L9.16666 4.16667C9.16666 3.70643 9.53976 3.33334 10 3.33334C10.4602 3.33334 10.8333 3.70643 10.8333 4.16667L10.8333 15.8333C10.8333 16.2936 10.4602 16.6667 10 16.6667Z"
    fill="#9FA2B4" />
  <path fill-rule="evenodd" clip-rule="evenodd"
    d="M16.4226 10.5893C16.0972 10.9147 15.5695 10.9147 15.2441 10.5893L10 5.34518L4.75593 10.5893C4.43049 10.9147 3.90285 10.9147 3.57742 10.5893C3.25198 10.2638 3.25198 9.73618 3.57742 9.41074L9.41075 3.57741C9.73619 3.25197 10.2638 3.25197 10.5893 3.57741L16.4226 9.41074C16.748 9.73618 16.748 10.2638 16.4226 10.5893Z"
    fill="#9FA2B4" />
</svg>