
<svg width="24" height="24" viewBox="0 0 24 24" fill="none" xmlns="http://www.w3.org/2000/svg">
<path fill-rule="evenodd" clip-rule="evenodd" d="M10.9886 2.90501C11.265 2.65267 11.6257 2.51274 12 2.51274C12.3743 2.51274 12.735 2.65267 13.0114 2.90501C13.0118 2.90534 13.0121 2.90568 13.0125 2.90601L20.5107 9.71995L20.5212 9.72974C20.6694 9.86971 20.7881 10.0379 20.8703 10.2245C20.9526 10.411 20.9966 10.6122 20.9999 10.816L21 10.8281V20.25C21 20.6642 20.6642 21 20.25 21C19.8358 21 19.5 20.6642 19.5 20.25V10.8383C19.4997 10.8352 19.499 10.8322 19.4977 10.8294C19.4965 10.8266 19.4949 10.8241 19.4929 10.8219L12.0018 4.01443L12 4.01274L11.9982 4.01443L4.50711 10.8219C4.50512 10.8241 4.50349 10.8266 4.50229 10.8294C4.50103 10.8322 4.50026 10.8352 4.5 10.8383V20.25C4.5 20.6642 4.16421 21 3.75 21C3.33579 21 3 20.6642 3 20.25V10.8281L3.0001 10.816C3.0034 10.6122 3.04745 10.411 3.12966 10.2245C3.21187 10.0379 3.33057 9.86971 3.47879 9.72974L3.48935 9.71995L10.9875 2.90601C10.9879 2.90568 10.9882 2.90534 10.9886 2.90501Z" fill="#9FA2B4"/>
<path fill-rule="evenodd" clip-rule="evenodd" d="M0.75 20.25C0.75 19.8358 1.08579 19.5 1.5 19.5H22.5C22.9142 19.5 23.25 19.8358 23.25 20.25C23.25 20.6642 22.9142 21 22.5 21H1.5C1.08579 21 0.75 20.6642 0.75 20.25Z" fill="#9FA2B4"/>
<path fill-rule="evenodd" clip-rule="evenodd" d="M9.43934 13.9393C9.72065 13.658 10.1022 13.5 10.5 13.5H13.5C13.8978 13.5 14.2794 13.658 14.5607 13.9393C14.842 14.2206 15 14.6022 15 15V20.25C15 20.6642 14.6642 21 14.25 21C13.8358 21 13.5 20.6642 13.5 20.25V15L10.5 15L10.5 20.25C10.5 20.6642 10.1642 21 9.75 21C9.33579 21 9 20.6642 9 20.25V15C9 14.6022 9.15804 14.2206 9.43934 13.9393Z" fill="#9FA2B4"/>
</svg>
