<svg width="24" height="24" viewBox="0 0 24 24" fill="none" xmlns="http://www.w3.org/2000/svg">
<path fill-rule="evenodd" clip-rule="evenodd" d="M3 17.25C3 16.8358 3.33579 16.5 3.75 16.5H9.75C10.1642 16.5 10.5 16.8358 10.5 17.25C10.5 17.6642 10.1642 18 9.75 18H3.75C3.33579 18 3 17.6642 3 17.25Z" fill="#9FA2B4"/>
<path fill-rule="evenodd" clip-rule="evenodd" d="M6.75 13.5C7.16421 13.5 7.5 13.8358 7.5 14.25V20.25C7.5 20.6642 7.16421 21 6.75 21C6.33579 21 6 20.6642 6 20.25V14.25C6 13.8358 6.33579 13.5 6.75 13.5Z" fill="#9FA2B4"/>
<path fill-rule="evenodd" clip-rule="evenodd" d="M3 6.75C3 6.33579 3.33579 6 3.75 6H9.75C10.1642 6 10.5 6.33579 10.5 6.75C10.5 7.16421 10.1642 7.5 9.75 7.5H3.75C3.33579 7.5 3 7.16421 3 6.75Z" fill="#9FA2B4"/>
<path fill-rule="evenodd" clip-rule="evenodd" d="M13.5 15.7594C13.5 15.3452 13.8358 15.0094 14.25 15.0094H20.25C20.6642 15.0094 21 15.3452 21 15.7594C21 16.1736 20.6642 16.5094 20.25 16.5094H14.25C13.8358 16.5094 13.5 16.1736 13.5 15.7594Z" fill="#9FA2B4"/>
<path fill-rule="evenodd" clip-rule="evenodd" d="M13.5 18.7406C13.5 18.3264 13.8358 17.9906 14.25 17.9906H20.25C20.6642 17.9906 21 18.3264 21 18.7406C21 19.1548 20.6642 19.4906 20.25 19.4906H14.25C13.8358 19.4906 13.5 19.1548 13.5 18.7406Z" fill="#9FA2B4"/>
<path fill-rule="evenodd" clip-rule="evenodd" d="M20.0303 3.96967C20.3232 4.26256 20.3232 4.73744 20.0303 5.03033L15.5303 9.53033C15.2374 9.82322 14.7626 9.82322 14.4697 9.53033C14.1768 9.23744 14.1768 8.76256 14.4697 8.46967L18.9697 3.96967C19.2626 3.67678 19.7374 3.67678 20.0303 3.96967Z" fill="#9FA2B4"/>
<path fill-rule="evenodd" clip-rule="evenodd" d="M14.4697 3.96967C14.7626 3.67678 15.2374 3.67678 15.5303 3.96967L20.0303 8.46967C20.3232 8.76256 20.3232 9.23744 20.0303 9.53033C19.7374 9.82322 19.2626 9.82322 18.9697 9.53033L14.4697 5.03033C14.1768 4.73744 14.1768 4.26256 14.4697 3.96967Z" fill="#9FA2B4"/>
</svg>
